# xmcd CD database file
#
# Track frame offsets:
#	150
#	16545
#	30427
#	46845
#	61995
#	83685
#	99470
#	115822
#	134515
#	150017
#	163972
#	181705
#	196862
#	219147
#
# Disc length: 3123 seconds
#
# Revision: 0
# Processed by: cddbd v1.5.1PL0 Copyright (c) Steve Scherf et al.
# Submitted via: CDex 1.51
#
DISCID=9a0c310e
DTITLE=Evie Sands - Estate of Mind
DYEAR=1975
DGENRE=Blues
TTITLE0=A Woman's Work is Never Done
TTITLE1=Love in the Afternoon
TTITLE2=You Brought the Woman Out of Me
TTITLE3=Take It Or Leave It
TTITLE4=Call Me Home Again
TTITLE5=One Thing On My Mind
TTITLE6=Yesterday Can't Hurt Me
TTITLE7=I Love Makin' Love to You
TTITLE8=Early Morning Sunshine
TTITLE9=Am I Crazy `Cause I Believe
TTITLE10=Music Man
TTITLE11=Signed, Sealed,Delivered, I'm Yours
TTITLE12=You Can Do It
TTITLE13=The Way You Do the Things You Do
EXTD=YEAR: 1975
EXTT0=
EXTT1=
EXTT2=
EXTT3=
EXTT4=
EXTT5=
EXTT6=
EXTT7=
EXTT8=
EXTT9=
EXTT10=
EXTT11=
EXTT12=
EXTT13=
PLAYORDER=
